# xmcd
#
# Track frame offsets:
#	150
#	16252
#	34454
#	49491
#	61926
#	78133
#	89743
#	104578
#	118910
#	138567
#	151519
#	168716
#
# Disc length: 2396 seconds
#
# Revision: 0
# Processed by: cddbd v1.5.2PL0 Copyright (c) Steve Scherf et al.
# Submitted via: dBpowerAMP V4.0
#
DISCID=a4095a0c
DTITLE=Paul Bailey - By Request Vol.3
DYEAR=2007
DGENRE=Country
TTITLE0=Mr Mom
TTITLE1=The Real Word
TTITLE2=Some Beach
TTITLE3=Misty
TTITLE4=Stuck On You
TTITLE5=Rhyth Of The Rain
TTITLE6=I Might
TTITLE7=Bad Case Of Loving You
TTITLE8=Remember When
TTITLE9=Just One More Time
TTITLE10=Who's Been Sleeping In My Bed
TTITLE11=Bad Moon Rising
EXTD=
EXTT0=
EXTT1=
EXTT2=
EXTT3=
EXTT4=
EXTT5=
EXTT6=
EXTT7=
EXTT8=
EXTT9=
EXTT10=
EXTT11=
PLAYORDER=
